<svg width="27" height="27" viewBox="0 0 27 27" fill="none" xmlns="http://www.w3.org/2000/svg">
<path opacity="0.4" d="M8.12109 14.85L13.4747 9.49638C13.4916 9.48373 13.5084 9.47107 13.5211 9.46685C15.3267 11.2598 17.1239 13.0528 18.9211 14.85H8.12109Z" fill="#990000"/>
<path d="M12.5677 8.49657C13.1119 8.00719 13.9345 7.95657 14.4745 8.49657L19.8745 13.8966C20.2627 14.2847 20.3766 14.8627 20.1656 15.3689L20.0728 15.5503C19.8324 15.9511 19.3936 16.2042 18.9169 16.2042H8.11688L7.91438 16.1916C7.51782 16.1325 7.16766 15.8963 6.96095 15.5545L6.86813 15.3731C6.69095 14.9259 6.75845 14.4281 7.03266 14.0484L7.16345 13.8923L12.5634 8.49235L12.5677 8.49657ZM13.5253 9.46688C13.5127 9.4711 13.4958 9.47954 13.4789 9.49641L8.1211 14.85H18.9211L13.5338 9.46266C13.5295 9.46266 13.5253 9.46688 13.5253 9.46688Z" fill="#990000"/>
</svg>
