<svg width="16" height="16" viewBox="0 0 16 16" fill="none" xmlns="http://www.w3.org/2000/svg">
<path d="M6.25854 4.44824C6.32559 4.44826 6.37656 4.46878 6.42847 4.52051L9.72534 7.81738C9.76116 7.85329 9.77811 7.8817 9.78589 7.90039C9.79571 7.92407 9.80151 7.95098 9.80151 7.9834C9.80147 8.0158 9.79576 8.04273 9.78589 8.06641C9.77807 8.08516 9.76134 8.1134 9.72534 8.14941L6.41187 11.4619C6.36016 11.5135 6.3161 11.5283 6.26245 11.5264C6.19961 11.5241 6.14502 11.5027 6.08765 11.4453C6.03566 11.3933 6.01538 11.3416 6.01538 11.2744C6.01545 11.2074 6.03586 11.1564 6.08765 11.1045L9.20874 7.9834L8.97339 7.74707L6.07104 4.84473C6.01953 4.79306 6.00562 4.74895 6.00757 4.69531C6.00987 4.63247 6.03028 4.57788 6.08765 4.52051C6.13972 4.46845 6.19129 4.44824 6.25854 4.44824Z" fill="black" stroke="black" stroke-width="0.666667"/>
</svg>
