<svg width="24" height="24" viewBox="0 0 24 24" fill="none" xmlns="http://www.w3.org/2000/svg">
<path opacity="0.4" d="M3.6001 11.9996C3.6001 16.6384 7.36135 20.3996 12.0001 20.3996C14.1038 20.3996 16.0276 19.6271 17.5013 18.3484L5.65135 6.49836C4.3726 7.97211 3.6001 9.89586 3.6001 11.9996ZM6.49885 5.65086L18.3488 17.5009C19.6276 16.0271 20.4001 14.1034 20.4001 11.9996C20.4001 7.36086 16.6388 3.59961 12.0001 3.59961C9.89635 3.59961 7.9726 4.37211 6.49885 5.65086Z" fill="#990000"/>
<path d="M17.5012 18.3491L5.65115 6.49914C4.3724 7.97289 3.5999 9.89664 3.5999 12.0004C3.5999 16.6391 7.36115 20.4004 11.9999 20.4004C14.1037 20.4004 16.0274 19.6279 17.5012 18.3491ZM18.3487 17.5016C19.6274 16.0279 20.3999 14.1041 20.3999 12.0004C20.3999 7.36164 16.6387 3.60039 11.9999 3.60039C9.89615 3.60039 7.9724 4.37289 6.49865 5.65164L18.3487 17.5016ZM2.3999 12.0004C2.3999 6.69789 6.6974 2.40039 11.9999 2.40039C17.3024 2.40039 21.5999 6.69789 21.5999 12.0004C21.5999 17.3029 17.3024 21.6004 11.9999 21.6004C6.6974 21.6004 2.3999 17.3029 2.3999 12.0004Z" fill="#990000"/>
</svg>
