<svg width="22" height="22" viewBox="0 0 22 22" fill="none" xmlns="http://www.w3.org/2000/svg">
<path opacity="0.4" d="M3.2998 11.0008C3.2998 15.253 6.74762 18.7008 10.9998 18.7008C15.252 18.7008 18.6998 15.253 18.6998 11.0008C18.6998 6.74859 15.252 3.30078 10.9998 3.30078C6.74762 3.30078 3.2998 6.74859 3.2998 11.0008ZM7.31137 11.7123C7.52449 11.4992 7.87512 11.4992 8.08824 11.7123L9.83105 13.4552L13.8529 7.92766C14.0317 7.68359 14.3754 7.62859 14.6195 7.80734C14.8636 7.98609 14.9186 8.32984 14.7398 8.57391L10.3398 14.6239C10.2436 14.7545 10.0992 14.837 9.93762 14.8473C9.77605 14.8577 9.61793 14.8027 9.50449 14.6892L7.30449 12.4892C7.09137 12.2761 7.09137 11.9255 7.30449 11.7123H7.31137Z" fill="#990000"/>
<path d="M11.0002 19.7992C6.13957 19.7992 2.2002 15.8598 2.2002 10.9992C2.2002 6.13859 6.13957 2.19922 11.0002 2.19922C15.8608 2.19922 19.8002 6.13859 19.8002 10.9992C19.8002 15.8598 15.8608 19.7992 11.0002 19.7992ZM11.0002 3.29922C6.74801 3.29922 3.3002 6.74703 3.3002 10.9992C3.3002 15.2514 6.74801 18.6992 11.0002 18.6992C15.2524 18.6992 18.7002 15.2514 18.7002 10.9992C18.7002 6.74703 15.2524 3.29922 11.0002 3.29922ZM13.8568 7.92609C14.0355 7.68203 14.3793 7.62703 14.6233 7.80578C14.8674 7.98453 14.9224 8.32828 14.7436 8.57234L10.3436 14.6223C10.2474 14.753 10.103 14.8355 9.94145 14.8458C9.77988 14.8561 9.62176 14.8011 9.50832 14.6877L7.30832 12.4877C7.0952 12.2745 7.0952 11.9239 7.30832 11.7108C7.52145 11.4977 7.87207 11.4977 8.0852 11.7108L9.82801 13.4536L13.8499 7.92609H13.8568Z" fill="#990000"/>
</svg>
