<svg width="18" height="18" viewBox="0 0 18 18" fill="none" xmlns="http://www.w3.org/2000/svg">
<path opacity="0.4" d="M6.2998 13.4996C6.2998 13.0018 6.70199 12.5996 7.1998 12.5996H15.2998C15.7976 12.5996 16.1998 13.0018 16.1998 13.4996C16.1998 13.9974 15.7976 14.3996 15.2998 14.3996H7.1998C6.70199 14.3996 6.2998 13.9974 6.2998 13.4996ZM8.0998 4.49961C8.0998 4.0018 8.50199 3.59961 8.9998 3.59961H15.2998C15.7976 3.59961 16.1998 4.0018 16.1998 4.49961C16.1998 4.99742 15.7976 5.39961 15.2998 5.39961H8.9998C8.50199 5.39961 8.0998 4.99742 8.0998 4.49961ZM8.0998 8.99961C8.0998 8.5018 8.50199 8.09961 8.9998 8.09961H15.2998C15.7976 8.09961 16.1998 8.5018 16.1998 8.99961C16.1998 9.49742 15.7976 9.89961 15.2998 9.89961H8.9998C8.50199 9.89961 8.0998 9.49742 8.0998 8.99961Z" fill="#990000"/>
<path d="M5.72922 3.76291C5.94297 3.45635 5.86984 3.03729 5.56328 2.82354C5.25672 2.60979 4.83766 2.68291 4.62391 2.98948L3.50735 4.57854L2.95328 4.02166C2.68891 3.7601 2.26141 3.7601 1.99703 4.02166C1.73266 4.28323 1.73547 4.71354 1.99703 4.97791L3.12203 6.10291C3.26266 6.24354 3.45953 6.31666 3.65922 6.29698C3.85891 6.27729 4.03891 6.17604 4.15422 6.01291L5.72922 3.76291ZM5.72922 8.26291C5.94297 7.95635 5.86984 7.53729 5.56328 7.32354C5.25672 7.10979 4.83766 7.18291 4.62391 7.48948L3.50735 9.07854L2.95328 8.52166C2.68891 8.25729 2.26141 8.25729 1.99985 8.52166C1.73828 8.78604 1.73547 9.21354 1.99703 9.47791L3.12203 10.6029C3.26266 10.7435 3.45953 10.8167 3.65922 10.797C3.85891 10.7773 4.03891 10.676 4.15422 10.5129L5.72922 8.26291ZM3.60016 14.6248C4.22172 14.6248 4.72516 14.1214 4.72516 13.4998C4.72516 12.8782 4.22172 12.3748 3.60016 12.3748C2.9786 12.3748 2.47516 12.8782 2.47516 13.4998C2.47516 14.1214 2.9786 14.6248 3.60016 14.6248Z" fill="#990000"/>
</svg>
