<svg width="22" height="22" viewBox="0 0 22 22" fill="none" xmlns="http://www.w3.org/2000/svg">
<path opacity="0.4" d="M2.2002 6.6C2.2002 6.49688 2.20707 6.39719 2.22082 6.2975L3.73676 7.81344C3.94988 8.02656 4.30051 8.02656 4.51363 7.81344C4.72676 7.60031 4.72676 7.24969 4.51363 7.03656L2.97707 5.5C3.24176 5.5 7.38051 5.5 15.4002 5.5C15.4002 7.32188 16.8783 8.8 18.7002 8.8V12.5366C18.9649 12.6431 19.2158 12.8047 19.4324 13.0212L19.8002 13.3891V15.4C19.8002 15.5031 19.7933 15.6028 19.7796 15.7025L18.2636 14.1866C18.0505 13.9734 17.6999 13.9734 17.4868 14.1866C17.2736 14.3997 17.2736 14.7503 17.4868 14.9634L19.0233 16.5H6.6002C6.6002 14.6781 5.12207 13.2 3.3002 13.2V9.46344C3.03551 9.35687 2.78457 9.19531 2.56801 8.97875L2.2002 8.61094V6.6ZM3.3002 14.3C4.51363 14.3 5.5002 15.2866 5.5002 16.5H4.4002C3.79176 16.5 3.3002 16.0084 3.3002 15.4V14.3ZM7.7002 11C7.7002 12.8219 9.17832 14.3 11.0002 14.3C12.8221 14.3 14.3002 12.8219 14.3002 11C14.3002 9.17813 12.8221 7.7 11.0002 7.7C9.17832 7.7 7.7002 9.17813 7.7002 11ZM16.5002 5.5H17.6002C18.2086 5.5 18.7002 5.99156 18.7002 6.6V7.7C17.4868 7.7 16.5002 6.71344 16.5002 5.5Z" fill="#990000"/>
<path d="M1.26141 5.3375C1.04828 5.12438 1.04828 4.77375 1.26141 4.56062L3.73641 2.08562C3.94953 1.8725 4.30016 1.8725 4.51328 2.08562C4.72641 2.29875 4.72641 2.64938 4.51328 2.8625L2.97672 4.39906H7.14984H7.15328H17.5998C18.8133 4.39906 19.7998 5.38562 19.7998 6.59906V13.3881L19.432 13.0203C19.2155 12.8038 18.968 12.6422 18.6998 12.5356V8.79906C16.878 8.79906 15.3998 7.32094 15.3998 5.49906H5.31078H2.97672L4.51328 7.03562C4.72641 7.24875 4.72641 7.59938 4.51328 7.8125C4.30016 8.02563 3.94953 8.02563 3.73641 7.8125L1.26141 5.3375ZM2.19984 15.3991V8.61L2.56766 8.97781C2.78422 9.19438 3.03172 9.35594 3.29984 9.4625V13.1991C5.12172 13.1991 6.59984 14.6772 6.59984 16.4991H19.023L17.4864 14.9625C17.2733 14.7494 17.2733 14.3988 17.4864 14.1856C17.6995 13.9725 18.0502 13.9725 18.2633 14.1856L20.7383 16.6606C20.9514 16.8738 20.9514 17.2244 20.7383 17.4375L18.2633 19.9125C18.0502 20.1256 17.6995 20.1256 17.4864 19.9125C17.2733 19.6994 17.2733 19.3488 17.4864 19.1356L19.023 17.5991H4.39984C3.18641 17.5991 2.19984 16.6125 2.19984 15.3991ZM3.29984 14.2991V15.3991C3.29984 16.0075 3.79141 16.4991 4.39984 16.4991H5.49984C5.49984 15.2856 4.51328 14.2991 3.29984 14.2991ZM18.6998 7.69906V6.59906C18.6998 5.99062 18.2083 5.49906 17.5998 5.49906H16.4998C16.4998 6.7125 17.4864 7.69906 18.6998 7.69906ZM13.1998 10.9991C13.1998 9.78563 12.2133 8.79906 10.9998 8.79906C9.78641 8.79906 8.79984 9.78563 8.79984 10.9991C8.79984 12.2125 9.78641 13.1991 10.9998 13.1991C12.2133 13.1991 13.1998 12.2125 13.1998 10.9991ZM7.69984 10.9991C7.69984 9.17719 9.17797 7.69906 10.9998 7.69906C12.8217 7.69906 14.2998 9.17719 14.2998 10.9991C14.2998 12.8209 12.8217 14.2991 10.9998 14.2991C9.17797 14.2991 7.69984 12.8209 7.69984 10.9991Z" fill="#990000"/>
</svg>
