<svg width="21" height="21" viewBox="0 0 21 21" fill="none" xmlns="http://www.w3.org/2000/svg">
<path opacity="0.4" d="M3.1499 10.5002C3.1499 8.46914 3.9735 6.63492 5.3024 5.30273L6.97912 6.97945C6.77568 7.18289 6.77568 7.51758 6.97912 7.72102L10.1291 10.871C10.3326 11.0745 10.6672 11.0745 10.8707 10.871C11.0741 10.6676 11.0741 10.3329 10.8707 10.1295L10.4999 9.75867V6.30023C10.7887 6.30023 11.0249 6.06398 11.0249 5.77523V3.16992C14.8377 3.43898 17.8499 6.61852 17.8499 10.5002C17.8499 14.5591 14.5588 17.8502 10.4999 17.8502C6.441 17.8502 3.1499 14.5591 3.1499 10.5002Z" fill="#990000"/>
<path d="M10.5001 2.09961C10.2113 2.09961 9.9751 2.33586 9.9751 2.62461V5.77461C9.9751 6.06336 10.2113 6.29961 10.5001 6.29961C10.7888 6.29961 11.0251 6.06336 11.0251 5.77461V3.1693C14.8379 3.43836 17.8501 6.61789 17.8501 10.4996C17.8501 14.5585 14.559 17.8496 10.5001 17.8496C6.44119 17.8496 3.1501 14.5585 3.1501 10.4996C3.1501 8.46852 3.97369 6.6343 5.3026 5.30211C5.50604 5.09867 5.50604 4.76398 5.3026 4.56055C5.09916 4.35711 4.76447 4.35383 4.56104 4.56055C3.04182 6.07977 2.1001 8.17977 2.1001 10.4996C2.1001 15.1393 5.86041 18.8996 10.5001 18.8996C15.1398 18.8996 18.9001 15.1393 18.9001 10.4996C18.9001 5.85992 15.1398 2.09961 10.5001 2.09961ZM7.72088 6.97883C7.51744 6.77539 7.18275 6.77539 6.97932 6.97883C6.77588 7.18227 6.77588 7.51695 6.97932 7.72039L10.1293 10.8704C10.3328 11.0738 10.6674 11.0738 10.8709 10.8704C11.0743 10.667 11.0743 10.3323 10.8709 10.1288L7.72088 6.97883Z" fill="#990000"/>
</svg>
