<svg width="16" height="16" viewBox="0 0 16 16" fill="none" xmlns="http://www.w3.org/2000/svg">
<path opacity="0.4" d="M1.60001 12.03C1.60001 12.455 1.94501 12.8 2.37001 12.8H13.645C14.0625 12.8 14.4 12.4625 14.4 12.045C14.4 11.7825 14.265 11.54 14.0425 11.4025L7.79001 7.54L7.79501 7.5325L1.94751 11.3875C1.73001 11.53 1.60001 11.77 1.60001 12.03Z" fill="#990000"/>
<path d="M7.79999 2.4C6.86249 2.4 6.08999 3.12 6.00749 4.035C5.98749 4.255 5.79249 4.4175 5.57249 4.3975C5.35249 4.3775 5.18999 4.1825 5.20999 3.9625C5.32999 2.6375 6.44249 1.5975 7.79999 1.5975C9.23499 1.5975 10.4 2.7625 10.4 4.1975C10.4 5.205 9.89249 6.1475 9.04999 6.7025L8.52249 7.05L14.4625 10.7175C14.9225 11 15.2 11.5025 15.2 12.04C15.2 12.9 14.5025 13.595 13.645 13.595H2.36999C1.50249 13.6 0.799988 12.8975 0.799988 12.03C0.799988 11.5025 1.06499 11.01 1.50499 10.72L8.60999 6.0375C9.22749 5.63 9.59999 4.94 9.59999 4.2C9.59999 3.205 8.79499 2.4 7.79999 2.4ZM7.79499 7.5325L1.94499 11.3875C1.72999 11.53 1.59999 11.7725 1.59999 12.03C1.59999 12.455 1.94499 12.8 2.36999 12.8H13.645C14.0625 12.8 14.4 12.4625 14.4 12.045C14.4 11.7825 14.265 11.54 14.0425 11.4025L7.78999 7.54L7.79499 7.5325Z" fill="#990000"/>
</svg>
