<svg width="16" height="16" viewBox="0 0 16 16" fill="none" xmlns="http://www.w3.org/2000/svg">
<path opacity="0.4" d="M1.6 4V9.6C1.6 10.0425 1.9575 10.4 2.4 10.4H6.8V3.2H2.4C1.9575 3.2 1.6 3.5575 1.6 4ZM8.8 3.6V12.4C8.8 12.62 8.98 12.8 9.2 12.8H14C14.22 12.8 14.4 12.62 14.4 12.4V3.6C14.4 3.38 14.22 3.2 14 3.2H9.2C8.98 3.2 8.8 3.38 8.8 3.6ZM13.2 10C13.2 10.8825 12.4825 11.6 11.6 11.6C10.7175 11.6 10 10.8825 10 10C10 9.1175 10.7175 8.4 11.6 8.4C12.4825 8.4 13.2 9.1175 13.2 10ZM12.2 5.4C12.2 5.7325 11.9325 6 11.6 6C11.2675 6 11 5.7325 11 5.4C11 5.0675 11.2675 4.8 11.6 4.8C11.9325 4.8 12.2 5.0675 12.2 5.4Z" fill="#990000"/>
<path d="M6.8 10.4V11.2H2.4C1.5175 11.2 0.8 10.4825 0.8 9.6V4C0.8 3.1175 1.5175 2.4 2.4 2.4H7.12C6.98 2.6425 6.88 2.9125 6.8325 3.2H2.4C1.9575 3.2 1.6 3.5575 1.6 4V9.6C1.6 10.0425 1.9575 10.4 2.4 10.4H6.8ZM6.8325 12.8C6.88 13.0875 6.98 13.3575 7.12 13.6H3.6C3.38 13.6 3.2 13.42 3.2 13.2C3.2 12.98 3.38 12.8 3.6 12.8H6.8325ZM9.2 3.2C8.98 3.2 8.8 3.38 8.8 3.6V12.4C8.8 12.62 8.98 12.8 9.2 12.8H14C14.22 12.8 14.4 12.62 14.4 12.4V3.6C14.4 3.38 14.22 3.2 14 3.2H9.2ZM8 3.6C8 2.9375 8.5375 2.4 9.2 2.4H14C14.6625 2.4 15.2 2.9375 15.2 3.6V12.4C15.2 13.0625 14.6625 13.6 14 13.6H9.2C8.5375 13.6 8 13.0625 8 12.4V3.6ZM11 5.4C11 5.0675 11.2675 4.8 11.6 4.8C11.9325 4.8 12.2 5.0675 12.2 5.4C12.2 5.7325 11.9325 6 11.6 6C11.2675 6 11 5.7325 11 5.4ZM12.4 10C12.4 9.5575 12.0425 9.2 11.6 9.2C11.1575 9.2 10.8 9.5575 10.8 10C10.8 10.4425 11.1575 10.8 11.6 10.8C12.0425 10.8 12.4 10.4425 12.4 10ZM10 10C10 9.1175 10.7175 8.4 11.6 8.4C12.4825 8.4 13.2 9.1175 13.2 10C13.2 10.8825 12.4825 11.6 11.6 11.6C10.7175 11.6 10 10.8825 10 10Z" fill="#990000"/>
</svg>
