<svg width="16" height="13" viewBox="0 0 16 13" fill="none" xmlns="http://www.w3.org/2000/svg">
<path opacity="0.4" d="M0.888885 5.33334V8C0.888885 8.43334 1.19722 8.79167 1.60833 8.87222C2.01666 8.08889 2.83333 7.55556 3.77777 7.55556C4.72777 7.55556 5.55 8.09722 5.95555 8.88889H10.0444C10.45 8.09722 11.2722 7.55556 12.2222 7.55556C13.1667 7.55556 13.9833 8.08889 14.3917 8.87222C14.8028 8.79167 15.1111 8.43334 15.1111 8V6.22222C15.1111 5.73056 14.7139 5.33334 14.2222 5.33334H0.888885Z" fill="#990000"/>
<path d="M10.8083 1.38056L12.3417 4.44444H6.66944V0.888889H10.0139C10.35 0.888889 10.6583 1.07778 10.8083 1.38056ZM5.77778 0.888889V4.44444H1.09167L2.54444 1.39444C2.68889 1.08611 3.00278 0.888889 3.34444 0.888889H5.77778ZM12.8889 5.33333H14.2222C14.7139 5.33333 15.1111 5.73056 15.1111 6.22222V8C15.1111 8.43333 14.8028 8.79444 14.3917 8.87222C13.9833 8.08889 13.1667 7.55556 12.2222 7.55556C11.2722 7.55556 10.45 8.09722 10.0444 8.88889H5.95556C5.55 8.09722 4.72778 7.55556 3.77778 7.55556C2.83333 7.55556 2.01667 8.08889 1.60833 8.87222C1.19722 8.79444 0.888889 8.43333 0.888889 8V5.33333H12.8889ZM14.6528 9.725C15.425 9.53333 16 8.83333 16 8V6.22222C16 5.24167 15.2028 4.44444 14.2222 4.44444H13.3333L11.6028 0.983333C11.3 0.380555 10.6861 0 10.0111 0H3.34444C2.65833 0 2.03333 0.394444 1.73889 1.01389L0.258333 4.12222C0.0888889 4.48056 0 4.87222 0 5.26944V8C0 8.83333 0.575 9.53333 1.34722 9.725C1.33611 9.81389 1.33333 9.90556 1.33333 10C1.33333 11.35 2.42778 12.4444 3.77778 12.4444C5.12778 12.4444 6.22222 11.35 6.22222 10C6.22222 9.925 6.21944 9.85 6.21111 9.77778H9.78611C9.78056 9.85 9.775 9.925 9.775 10C9.775 11.35 10.8694 12.4444 12.2194 12.4444C13.5694 12.4444 14.6639 11.35 14.6639 10C14.6639 9.90833 14.6583 9.81667 14.65 9.725H14.6528ZM2.22222 10C2.22222 9.14167 2.91944 8.44444 3.77778 8.44444C4.63611 8.44444 5.33333 9.14167 5.33333 10C5.33333 10.8583 4.63611 11.5556 3.77778 11.5556C2.91944 11.5556 2.22222 10.8583 2.22222 10ZM12.2222 8.44444C13.0806 8.44444 13.7778 9.14167 13.7778 10C13.7778 10.8583 13.0806 11.5556 12.2222 11.5556C11.3639 11.5556 10.6667 10.8583 10.6667 10C10.6667 9.14167 11.3639 8.44444 12.2222 8.44444Z" fill="#990000"/>
</svg>
