<svg width="16" height="16" viewBox="0 0 16 16" fill="none" xmlns="http://www.w3.org/2000/svg">
<path opacity="0.4" d="M2.40002 8.8C2.40002 8.3575 2.75752 8 3.20002 8C3.64252 8 4.00002 8.3575 4.00002 8.8V9.2C4.00002 9.42 4.18002 9.6 4.40002 9.6H11.6C11.82 9.6 12 9.42 12 9.2V8.8C12 8.3575 12.3575 8 12.8 8C13.2425 8 13.6 8.3575 13.6 8.8V10.8C13.6 11.4625 13.0625 12 12.4 12H3.60002C2.93752 12 2.40002 11.4625 2.40002 10.8V8.8ZM4.00002 6.2C4.00002 4.985 4.98502 4 6.20002 4H9.80002C11.015 4 12 4.985 12 6.2V7.415C11.5225 7.6925 11.2 8.2075 11.2 8.8H4.80002C4.80002 8.2075 4.47752 7.69 4.00002 7.415V6.2Z" fill="#990000"/>
<path d="M3.99998 6.2V7.415C4.47748 7.6925 4.79998 8.2075 4.79998 8.8H11.2C11.2 8.2075 11.5225 7.69 12 7.415V6.2C12 4.985 11.015 4 9.79998 4H6.19998C4.98498 4 3.99998 4.985 3.99998 6.2ZM3.19998 7.2V6.2C3.19998 4.5425 4.54248 3.2 6.19998 3.2H9.79998C11.4575 3.2 12.8 4.5425 12.8 6.2V7.2C13.6825 7.2 14.4 7.9175 14.4 8.8V10.8C14.4 11.7675 13.7125 12.575 12.8 12.76V13.2C12.8 13.42 12.62 13.6 12.4 13.6C12.18 13.6 12 13.42 12 13.2V12.8H3.99998V13.2C3.99998 13.42 3.81998 13.6 3.59998 13.6C3.37998 13.6 3.19998 13.42 3.19998 13.2V12.76C2.28748 12.575 1.59998 11.7675 1.59998 10.8V8.8C1.59998 7.9175 2.31748 7.2 3.19998 7.2ZM2.39998 8.8V10.8C2.39998 11.4625 2.93748 12 3.59998 12H12.4C13.0625 12 13.6 11.4625 13.6 10.8V8.8C13.6 8.3575 13.2425 8 12.8 8C12.3575 8 12 8.3575 12 8.8V9.2C12 9.42 11.82 9.6 11.6 9.6H4.39998C4.17998 9.6 3.99998 9.42 3.99998 9.2V8.8C3.99998 8.3575 3.64248 8 3.19998 8C2.75748 8 2.39998 8.3575 2.39998 8.8Z" fill="#990000"/>
</svg>
