<svg width="16" height="16" viewBox="0 0 16 16" fill="none" xmlns="http://www.w3.org/2000/svg">
<path opacity="0.4" d="M2.625 13.3875L4.3025 12.8575L3.155 11.71L2.625 13.3875ZM3.4275 10.85L3.495 10.9175L5.095 12.5175L5.1625 12.585L6.735 12.0875L3.9225 9.275L3.425 10.8475L3.4275 10.85ZM4.195 8.4175L4.295 8.5175L7.495 11.7175L7.595 11.8175L8.8625 11.4175L4.595 7.15L4.195 8.4175Z" fill="#990000"/>
<path d="M2.61251 2.4C2.61251 2.0675 2.88001 1.8 3.21251 1.8C3.54501 1.8 3.81251 2.0675 3.81251 2.4C3.81251 2.7325 3.54501 3 3.21251 3C2.88001 3 2.61251 2.7325 2.61251 2.4ZM13.0125 5.6C13.0125 5.2675 13.28 5 13.6125 5C13.945 5 14.2125 5.2675 14.2125 5.6C14.2125 5.9325 13.945 6.2 13.6125 6.2C13.28 6.2 13.0125 5.9325 13.0125 5.6ZM13.6125 12.2C13.945 12.2 14.2125 12.4675 14.2125 12.8C14.2125 13.1325 13.945 13.4 13.6125 13.4C13.28 13.4 13.0125 13.1325 13.0125 12.8C13.0125 12.4675 13.28 12.2 13.6125 12.2ZM13.495 2.5175C13.65 2.6725 13.65 2.9275 13.495 3.0825L13.02 3.5575C12.7375 3.84 12.3525 4 11.9525 4H11.6775C11.3275 4 11.0825 4.3425 11.1925 4.6725C11.475 5.5225 10.8425 6.4 9.94751 6.4H9.67251C9.48501 6.4 9.30251 6.475 9.17001 6.6075L8.69501 7.0825C8.54001 7.2375 8.28501 7.2375 8.13001 7.0825C7.97501 6.9275 7.97501 6.6725 8.13001 6.5175L8.60501 6.0425C8.88751 5.76 9.27251 5.6 9.67251 5.6H9.94751C10.2975 5.6 10.5425 5.2575 10.4325 4.9275C10.15 4.0775 10.7825 3.2 11.6775 3.2H11.9525C12.14 3.2 12.3225 3.125 12.455 2.9925L12.93 2.5175C13.085 2.3625 13.34 2.3625 13.495 2.5175ZM7.61251 2.4V3.005C7.61251 3.7475 7.31751 4.46 6.79251 4.985L6.29501 5.4825C6.14001 5.6375 5.88501 5.6375 5.73001 5.4825C5.57501 5.3275 5.57501 5.0725 5.73001 4.9175L6.22751 4.42C6.60251 4.045 6.81251 3.535 6.81251 3.005V2.4C6.81251 2.18 6.99251 2 7.21251 2C7.43251 2 7.61251 2.18 7.61251 2.4ZM3.83251 6.9075C4.01251 6.335 4.73751 6.1575 5.16001 6.5825L9.43001 10.8525C9.85501 11.2775 9.67751 12 9.10501 12.18L2.86751 14.15C2.25001 14.345 1.66751 13.765 1.86251 13.145L3.83251 6.9075ZM8.86251 11.4175L4.59501 7.15L4.19501 8.4175L4.29501 8.5175L7.49501 11.7175L7.59501 11.8175L8.86251 11.4175ZM6.73501 12.09L3.92251 9.2775L3.42501 10.85L3.49251 10.9175L5.09251 12.5175L5.16001 12.585L6.73251 12.0875L6.73501 12.09ZM2.62501 13.3875L4.30251 12.8575L3.15501 11.71L2.62501 13.3875ZM14.0125 8.8C14.0125 9.02 13.8325 9.2 13.6125 9.2H13.0075C12.4775 9.2 11.9675 9.41 11.5925 9.785L11.095 10.2825C10.94 10.4375 10.685 10.4375 10.53 10.2825C10.375 10.1275 10.375 9.8725 10.53 9.7175L11.0275 9.22C11.5525 8.695 12.265 8.4 13.0075 8.4H13.6125C13.8325 8.4 14.0125 8.58 14.0125 8.8Z" fill="#990000"/>
</svg>
