<svg width="16" height="17" viewBox="0 0 16 17" fill="none" xmlns="http://www.w3.org/2000/svg">
<path opacity="0.4" d="M2.23251 3.0186L4.03001 5.824H5.60251V4.1886L2.90501 2.3192L2.23251 3.0186ZM2.49501 12.5762C2.10501 12.9818 2.10501 13.6396 2.49501 14.0478C2.88501 14.456 3.51751 14.4534 3.91001 14.0478L6.43001 11.427C6.09501 10.6262 6.05001 9.7266 6.30001 8.9024C6.25501 8.8556 6.21001 8.8088 6.16501 8.762L2.49501 12.5762ZM7.56751 3.7986C7.59001 3.926 7.60251 4.056 7.60251 4.1886V5.551L8.56251 6.5494C8.90751 6.4376 9.26751 6.3804 9.62751 6.383C9.61251 6.3388 9.60251 6.2894 9.60251 6.24V4.576C9.60251 4.4668 9.64501 4.3602 9.72001 4.2822L11.2675 2.6728C10.9325 2.5584 10.575 2.496 10.2025 2.496C9.14001 2.496 8.19001 3.003 7.56751 3.7986ZM8.57001 8.9076C8.00001 9.503 8.00001 10.465 8.57001 11.0578L11.72 14.3364C11.875 14.4976 12.13 14.4976 12.285 14.3364L13.7875 12.7738C13.9425 12.6126 13.9425 12.3474 13.7875 12.1862L10.6375 8.9076C10.065 8.3148 9.14001 8.3148 8.57001 8.9076ZM10.9275 6.656C11.335 6.8328 11.7175 7.0928 12.05 7.4386C12.315 7.7142 12.5775 7.9872 12.8425 8.2628C13.3175 7.6544 13.6025 6.8796 13.6025 6.0346C13.6025 5.6472 13.5425 5.2754 13.4325 4.927L11.885 6.5364C11.81 6.6144 11.7075 6.6586 11.6025 6.6586H10.9275V6.656Z" fill="#990000"/>
<path d="M1.43503 2.6702C1.30003 2.8106 1.28003 3.029 1.38503 3.1954L3.36503 6.2842C3.51253 6.5156 3.76253 6.6534 4.03003 6.6534H5.83503L7.74253 8.6372C7.12753 9.555 7.21253 10.8264 8.00003 11.6454L11.155 14.9266C11.6225 15.4128 12.3825 15.4128 12.8525 14.9266L14.355 13.364C14.8225 12.8778 14.8225 12.0874 14.355 11.5986L11.2025 8.32C10.415 7.501 9.19253 7.4126 8.31003 8.0522L6.40253 6.0684V4.1912C6.40253 3.913 6.27003 3.653 6.04753 3.4996L3.07503 1.4378C2.91753 1.3286 2.70503 1.3494 2.57003 1.4898L1.43503 2.6702ZM5.60253 5.824H4.03003L2.23253 3.0186L2.90503 2.3192L5.60253 4.1886V5.824ZM13.7875 12.7738L12.285 14.3364C12.13 14.4976 11.875 14.4976 11.72 14.3364L8.56753 11.0604C7.99753 10.465 7.99753 9.503 8.56753 8.9102C9.13753 8.3174 10.065 8.3174 10.635 8.9102L13.7875 12.1862C13.9425 12.3474 13.9425 12.6126 13.7875 12.7738ZM1.93003 11.9886C1.22753 12.7192 1.22753 13.9048 1.93003 14.6354C2.63253 15.366 3.77253 15.366 4.47503 14.6354L6.85003 12.168C6.68003 11.9366 6.54003 11.687 6.43003 11.427L3.91003 14.0478C3.52003 14.4534 2.88753 14.4534 2.49503 14.0478C2.10253 13.6422 2.10503 12.9844 2.49503 12.5762L6.16503 8.762L5.60003 8.1718L1.93003 11.9886ZM7.21753 2.9614C7.39253 3.2084 7.51253 3.4944 7.56753 3.7986C8.19003 3.003 9.14003 2.496 10.2025 2.496C10.575 2.496 10.9325 2.5584 11.2675 2.6728L9.72003 4.2822C9.64503 4.3602 9.60253 4.4668 9.60253 4.576V6.24C9.60253 6.2894 9.61003 6.3388 9.62753 6.383C10.07 6.3856 10.5125 6.4766 10.93 6.656H11.605C11.71 6.656 11.8125 6.6118 11.8875 6.5338L13.435 4.9244C13.545 5.2728 13.605 5.6446 13.605 6.032C13.605 6.877 13.32 7.6518 12.845 8.2602L13.4125 8.8504C14.0325 8.0886 14.405 7.1058 14.405 6.032C14.405 5.2988 14.2325 4.6098 13.925 4.0014C13.865 3.8844 13.7575 3.8038 13.63 3.783C13.5025 3.7622 13.3775 3.8064 13.2875 3.9L11.44 5.8214H10.405V4.745L12.2525 2.8236C12.3425 2.73 12.385 2.5974 12.365 2.4674C12.345 2.3374 12.2675 2.223 12.155 2.1606C11.57 1.8434 10.9075 1.664 10.2025 1.664C9.03503 1.664 7.97753 2.1606 7.21753 2.9614Z" fill="#990000"/>
</svg>
