<svg width="70" height="70" viewBox="0 0 70 70" fill="none" xmlns="http://www.w3.org/2000/svg">
<path opacity="0.4" d="M14 21V52.5C14 54.4359 15.5641 56 17.5 56H52.5C54.4359 56 56 54.4359 56 52.5V21C56 19.0641 54.4359 17.5 52.5 17.5H17.5C15.5641 17.5 14 19.0641 14 21ZM23.0016 37.0234C20.9234 35 22.0719 31.4672 24.9375 31.0516L29.7172 30.3516L31.85 26.0203C33.1297 23.4172 36.8484 23.4172 38.1281 26.0203L40.2609 30.3516L45.0406 31.0516C47.9062 31.4672 49.0547 35 46.9766 37.0234L43.5203 40.3922L44.3406 45.15C44.8328 48.0047 41.825 50.1922 39.2656 48.8359L34.9891 46.5828L30.7125 48.8359C28.1531 50.2031 25.1562 48.0156 25.6484 45.1609L26.4688 40.4031L23.0125 37.0344L23.0016 37.0234Z" fill="#990000"/>
<path d="M22.75 7C23.7125 7 24.5 7.7875 24.5 8.75V14H45.5V8.75C45.5 7.7875 46.2875 7 47.25 7C48.2125 7 49 7.7875 49 8.75V14H52.5C56.3609 14 59.5 17.1391 59.5 21V52.5C59.5 56.3609 56.3609 59.5 52.5 59.5H17.5C13.6391 59.5 10.5 56.3609 10.5 52.5V21C10.5 17.1391 13.6391 14 17.5 14H21V8.75C21 7.7875 21.7875 7 22.75 7ZM52.5 17.5H17.5C15.5641 17.5 14 19.0641 14 21V52.5C14 54.4359 15.5641 56 17.5 56H52.5C54.4359 56 56 54.4359 56 52.5V21C56 19.0641 54.4359 17.5 52.5 17.5ZM38.1391 26.0312L40.2719 30.3625L45.0516 31.0625C47.9172 31.4781 49.0656 35.0109 46.9875 37.0344L43.5312 40.4031L44.3516 45.1609C44.8437 48.0156 41.8359 50.2031 39.2766 48.8469L35 46.5938L30.7234 48.8469C28.1531 50.2031 25.1562 48.0156 25.6484 45.1609L26.4687 40.4031L23.0125 37.0344C20.9344 35.0109 22.0828 31.4781 24.9484 31.0625L29.7281 30.3625L31.8609 26.0312C33.1406 23.4281 36.8594 23.4281 38.1391 26.0312ZM32.4516 32.7359C32.2 33.25 31.7078 33.6109 31.1391 33.6984L25.4516 34.5297L29.575 38.5437C29.9906 38.9484 30.1766 39.5281 30.0781 40.0969L29.1047 45.7625L34.1906 43.0828C34.7047 42.8203 35.3062 42.8203 35.8203 43.0828L40.9062 45.7625L39.9328 40.0969C39.8344 39.5281 40.0203 38.9484 40.4359 38.5437L44.5594 34.5297L38.8719 33.6984C38.3031 33.6109 37.8109 33.2609 37.5594 32.7359L35.0109 27.5734L32.4625 32.7359H32.4516Z" fill="#990000"/>
</svg>
