<svg width="60" height="60" viewBox="0 0 60 60" fill="none" xmlns="http://www.w3.org/2000/svg">
<path opacity="0.4" d="M36 15C36 13.3406 37.3406 12 39 12H57V43.3688H56.6531C55.6312 39.9656 52.4813 37.4906 48.75 37.4906C45.5437 37.4906 42.7688 39.3187 41.4 41.9906H36V14.9906V15Z" fill="#990000"/>
<path d="M39 9C35.6906 9 33 11.6906 33 15V42.3844L4.06876 51.0656C3.27189 51.3 2.82189 52.1344 3.06564 52.9312C3.30939 53.7281 4.14376 54.1781 4.93126 53.9344L34.725 45H40.5375C40.5188 45.2438 40.5 45.4969 40.5 45.75C40.5 50.3063 44.1938 54 48.75 54C53.3063 54 57 50.3063 57 45.75C57 41.1937 53.3063 37.5 48.75 37.5C45.5438 37.5 42.7688 39.3281 41.4 42H36V15C36 13.3406 37.3406 12 39 12H57V9H39ZM43.5 45.75C43.5 42.8531 45.8531 40.5 48.75 40.5C51.6469 40.5 54 42.8531 54 45.75C54 48.6469 51.6469 51 48.75 51C45.8531 51 43.5 48.6469 43.5 45.75ZM8.73751 22.8844L17.3438 20.25C18.9281 19.7625 20.6063 20.6531 21.0938 22.2375L23.7281 30.8438C24.2156 32.4281 23.325 34.1063 21.7406 34.5938L13.125 37.2281C11.5406 37.7156 9.86251 36.825 9.37501 35.2406L6.75001 26.625C6.26251 25.0406 7.15314 23.3625 8.73751 22.875V22.8844ZM3.88126 27.5062L6.51564 36.1125C7.48126 39.2813 10.8375 41.0625 14.0063 40.0969L22.6125 37.4625C25.7813 36.4969 27.5625 33.1406 26.5969 29.9719L23.9625 21.3656C22.9969 18.1969 19.6406 16.4156 16.4719 17.3812L7.86564 20.0156C4.69689 20.9812 2.91564 24.3375 3.88126 27.5062Z" fill="#990000"/>
</svg>
