<svg width="57" height="57" viewBox="0 0 57 57" fill="none" xmlns="http://www.w3.org/2000/svg">
<path d="M42.0773 22.7919C42.0773 12.141 33.4427 3.50644 22.7919 3.50644C12.141 3.50644 3.50644 12.141 3.50644 22.7919C3.50644 33.4427 12.141 42.0773 22.7919 42.0773C33.4427 42.0773 42.0773 33.4427 42.0773 22.7919ZM37.6175 40.1049C33.6399 43.5237 28.457 45.5837 22.7919 45.5837C10.2015 45.5837 0 35.3822 0 22.7919C0 10.2015 10.2015 0 22.7919 0C35.3822 0 45.5837 10.2015 45.5837 22.7919C45.5837 28.457 43.5237 33.6399 40.1049 37.6175L55.588 53.1116C56.2674 53.791 56.2674 54.9087 55.588 55.588C54.9087 56.2674 53.791 56.2674 53.1116 55.588L37.6175 40.1049Z" fill="#990000"/>
</svg>
