<svg width="66" height="66" viewBox="0 0 66 66" fill="none" xmlns="http://www.w3.org/2000/svg">
<rect width="66" height="66" rx="33" fill="#FF0000"/>
<path d="M40.3594 30.1092C40.3594 23.9357 35.3605 18.9354 29.1886 18.9354C23.0168 18.9354 18.0179 23.9357 18.0179 30.1092C18.0179 36.2827 23.0168 41.283 29.1886 41.283C35.3605 41.283 40.3594 36.2827 40.3594 30.1092ZM38.2021 41.4995C35.7305 43.4619 32.5957 44.6351 29.1886 44.6351C21.1666 44.6351 14.6666 38.1334 14.6666 30.1092C14.6666 22.0851 21.1666 15.5833 29.1886 15.5833C37.2107 15.5833 43.7107 22.0851 43.7107 30.1092C43.7107 33.5172 42.5377 36.6529 40.5759 39.1251L49.9244 48.4761C50.5807 49.1326 50.5807 50.1941 49.9244 50.8436C49.2681 51.4931 48.2069 51.5 47.5576 50.8436L38.2021 41.4995Z" fill="white"/>
</svg>
