<svg width="60" height="60" viewBox="0 0 60 60" fill="none" xmlns="http://www.w3.org/2000/svg">
<path opacity="0.4" d="M18.0469 27L29.9437 38.8969C29.9812 38.925 30.0187 38.9531 30.0469 38.9625C34.0594 34.9781 38.0531 30.9938 42.0469 27H18.0469Z" fill="#990000"/>
<path d="M27.9286 41.1188C29.138 42.2063 30.9661 42.3188 32.1661 41.1188L44.1661 29.1188C45.0286 28.2563 45.2817 26.972 44.813 25.847L44.6067 25.4438C44.0723 24.5532 43.0973 23.9907 42.038 23.9907H18.038L17.588 24.0188C16.7067 24.1501 15.9286 24.6751 15.4692 25.4345L15.263 25.8376C14.8692 26.8313 15.0192 27.9376 15.6286 28.7813L15.9192 29.1282L27.9192 41.1282L27.9286 41.1188ZM30.0567 38.9626C30.0286 38.9532 29.9911 38.9345 29.9536 38.897L18.0473 27.0001H42.0473L30.0755 38.972C30.0661 38.972 30.0567 38.9626 30.0567 38.9626Z" fill="#990000"/>
</svg>
