<svg width="190" height="170" viewBox="0 0 190 170" fill="none" xmlns="http://www.w3.org/2000/svg">
<path opacity="0.4" d="M19 59.5V119C19 123.702 23.2453 127.5 28.5 127.5H52.25V93.5C52.25 77.0578 67.1234 63.75 85.5 63.75H133V59.5C133 54.7984 128.755 51 123.5 51H28.5C23.2453 51 19 54.7984 19 59.5Z" fill="#990000"/>
<path d="M57 34V42.5H95V34C95 24.6234 86.4797 17 76 17C65.5203 17 57 24.6234 57 34ZM47.5 42.5V34C47.5 19.9219 60.2656 8.5 76 8.5C91.7344 8.5 104.5 19.9219 104.5 34V42.5H123.5C133.98 42.5 142.5 50.1234 142.5 59.5V63.75H133V59.5C133 54.7984 128.755 51 123.5 51H28.5C23.2453 51 19 54.7984 19 59.5V119C19 123.702 23.2453 127.5 28.5 127.5H52.25V136H28.5C18.0203 136 9.5 128.377 9.5 119V59.5C9.5 50.1234 18.0203 42.5 28.5 42.5H47.5ZM76 93.5V136C76 140.702 80.2453 144.5 85.5 144.5H161.5C166.755 144.5 171 140.702 171 136V93.5C171 88.7984 166.755 85 161.5 85H85.5C80.2453 85 76 88.7984 76 93.5ZM66.5 93.5C66.5 84.1234 75.0203 76.5 85.5 76.5H161.5C171.98 76.5 180.5 84.1234 180.5 93.5V136C180.5 145.377 171.98 153 161.5 153H85.5C75.0203 153 66.5 145.377 66.5 136V93.5ZM99.75 97.75C102.363 97.75 104.5 99.6625 104.5 102V106.25C104.5 115.627 113.02 123.25 123.5 123.25C133.98 123.25 142.5 115.627 142.5 106.25V102C142.5 99.6625 144.637 97.75 147.25 97.75C149.863 97.75 152 99.6625 152 102V106.25C152 120.328 139.234 131.75 123.5 131.75C107.766 131.75 95 120.328 95 106.25V102C95 99.6625 97.1375 97.75 99.75 97.75Z" fill="#990000"/>
</svg>
