<svg width="170" height="170" viewBox="0 0 170 170" fill="none" xmlns="http://www.w3.org/2000/svg">
<path opacity="0.4" d="M27.3594 68H142.614L130.369 129.173C129.572 133.158 126.092 136 122.028 136H47.8922C43.8281 136 40.3484 133.131 39.5516 129.173L27.3594 68ZM51 89.25V114.75C51 117.087 52.9125 119 55.25 119C57.5875 119 59.5 117.087 59.5 114.75V89.25C59.5 86.9125 57.5875 85 55.25 85C52.9125 85 51 86.9125 51 89.25ZM80.75 89.25V114.75C80.75 117.087 82.6625 119 85 119C87.3375 119 89.25 117.087 89.25 114.75V89.25C89.25 86.9125 87.3375 85 85 85C82.6625 85 80.75 86.9125 80.75 89.25ZM110.5 89.25V114.75C110.5 117.087 112.412 119 114.75 119C117.088 119 119 117.087 119 114.75V89.25C119 86.9125 117.088 85 114.75 85C112.412 85 110.5 86.9125 110.5 89.25Z" fill="#990000"/>
<path d="M85 17C86.2219 17 87.3641 17.5047 88.1609 18.4078L124.923 59.5H153C155.337 59.5 157.25 61.4125 157.25 63.75C157.25 66.0875 155.337 68 153 68H151.3L138.736 130.847C137.142 138.789 130.183 144.5 122.055 144.5H47.9187C39.8172 144.5 32.8312 138.789 31.2375 130.847L18.7 68H17C14.6625 68 12.75 66.0875 12.75 63.75C12.75 61.4125 14.6625 59.5 17 59.5H45.0766L81.8391 18.4078C82.6359 17.5047 83.8047 17 85 17ZM85 27.625L56.4719 59.5H113.528L85 27.625ZM27.3594 68L39.6047 129.173C40.4016 133.158 43.8813 136 47.9453 136H122.081C126.145 136 129.625 133.131 130.422 129.173L142.641 68H27.3594ZM59.5 89.25V114.75C59.5 117.088 57.5875 119 55.25 119C52.9125 119 51 117.088 51 114.75V89.25C51 86.9125 52.9125 85 55.25 85C57.5875 85 59.5 86.9125 59.5 89.25ZM85 85C87.3375 85 89.25 86.9125 89.25 89.25V114.75C89.25 117.088 87.3375 119 85 119C82.6625 119 80.75 117.088 80.75 114.75V89.25C80.75 86.9125 82.6625 85 85 85ZM119 89.25V114.75C119 117.088 117.088 119 114.75 119C112.412 119 110.5 117.088 110.5 114.75V89.25C110.5 86.9125 112.412 85 114.75 85C117.088 85 119 86.9125 119 89.25Z" fill="#990000"/>
</svg>
