<svg width="162" height="162" viewBox="0 0 162 162" fill="none" xmlns="http://www.w3.org/2000/svg">
<path opacity="0.4" d="M24.3 68.8498C24.3 69.4573 24.6291 70.5711 26.4009 72.0898C28.1475 73.5832 30.9066 75.1273 34.7034 76.4942C42.2212 79.2279 52.8525 80.9998 64.8253 80.9998C76.7981 80.9998 87.4294 79.2279 94.9472 76.4942C98.7187 75.1273 101.478 73.5832 103.25 72.0898C105.022 70.5711 105.351 69.4573 105.351 68.8498C105.351 68.2423 105.022 67.1286 103.25 65.6098C101.503 64.1164 98.7441 62.5723 94.9472 61.2054C87.4294 58.4717 76.7981 56.6998 64.8253 56.6998C52.8525 56.6998 42.2212 58.4717 34.7034 61.2054C30.9319 62.5723 28.1728 64.1164 26.4009 65.6098C24.6291 67.1286 24.3 68.2423 24.3 68.8498ZM24.3 80.5189V95.1748C24.3 95.9595 24.705 97.1998 26.4516 98.7692C28.1981 100.339 30.9572 101.959 34.7287 103.376C42.2465 106.236 52.8525 108.084 64.8 108.084C76.7475 108.084 87.3534 106.236 94.8712 103.376C98.6428 101.933 101.402 100.339 103.148 98.7692C104.895 97.1998 105.3 95.9595 105.3 95.1748V80.5189C103.072 81.8857 100.491 83.0754 97.6809 84.0879C89.0747 87.2267 77.4309 89.0745 64.8 89.0745C52.1691 89.0745 40.5253 87.2267 31.9191 84.0879C29.1094 83.0754 26.5275 81.8857 24.3 80.5189ZM24.3 107.249V124.006C24.3 124.79 24.705 126.031 26.4516 127.6C28.1981 129.17 30.9572 130.789 34.7287 132.207C42.2465 135.067 52.8525 136.94 64.8 136.94C76.7475 136.94 87.3534 135.093 94.8712 132.232C98.6428 130.79 101.402 129.195 103.148 127.625C104.895 126.056 105.3 124.79 105.3 124.006V107.249C103.098 108.666 100.541 109.907 97.7316 110.97C89.1 114.26 77.4562 116.209 64.8 116.209C52.1437 116.209 40.4747 114.26 31.8684 110.97C29.0841 109.907 26.5275 108.666 24.3 107.249ZM56.7 36.4498C56.7 36.5257 56.7 36.6017 56.7253 36.7029C59.3831 36.5257 62.0916 36.4498 64.8 36.4498C78.1903 36.4498 91.0997 38.4748 101.351 42.3982C104.844 43.7398 108.464 45.4357 111.831 47.6886C117.779 46.9039 123.044 45.6636 127.322 44.1195C131.093 42.7526 133.852 41.2086 135.624 39.7151C137.396 38.1964 137.725 37.0826 137.725 36.4751C137.725 35.8676 137.396 34.7539 135.624 33.2351C133.852 31.7164 131.093 30.1723 127.322 28.8054C119.804 26.0717 109.147 24.2998 97.2 24.2998C85.2525 24.2998 74.5959 26.0717 67.0781 28.8054C63.3066 30.1723 60.5475 31.7164 58.7756 33.2098C57.0037 34.7286 56.6747 35.8423 56.6747 36.4498H56.7ZM119.576 54.5989C122.791 58.5729 125.55 64.0151 125.55 70.8748V71.6089C126.132 71.4064 126.714 71.2039 127.271 71.0014C131.043 69.5586 133.802 67.9639 135.548 66.3945C137.295 64.8251 137.7 63.5595 137.7 62.7748V48.1189C135.472 49.4857 132.891 50.6754 130.081 51.6879C126.942 52.827 123.398 53.7889 119.576 54.5736V54.5989ZM125.55 80.0886V100.414C126.132 100.212 126.714 100.009 127.271 99.807C131.043 98.3642 133.802 96.7695 135.548 95.2001C137.295 93.6307 137.7 92.3904 137.7 91.6057V74.8489C135.498 76.2664 132.941 77.5067 130.132 78.5698C128.689 79.1267 127.145 79.6329 125.55 80.1139V80.0886Z" fill="#990000"/>
<path d="M56.7 36.4503C56.7 36.5262 56.7 36.6021 56.7253 36.7034C53.9663 36.8806 51.2578 37.1337 48.6 37.4881V36.4503C48.6 32.5775 50.7769 29.4387 53.5106 27.0846C56.2697 24.7053 60.016 22.7562 64.3191 21.2121C72.9253 18.0734 84.5691 16.2256 97.2 16.2256C109.831 16.2256 121.475 18.0734 130.081 21.2121C134.359 22.7815 138.13 24.7306 140.889 27.0846C143.648 29.4387 145.8 32.6028 145.8 36.4503V91.6062C145.8 95.5043 143.724 98.7443 140.965 101.225C138.206 103.706 134.46 105.756 130.157 107.401C128.714 107.958 127.17 108.464 125.575 108.945V100.44C126.158 100.238 126.74 100.035 127.297 99.8328C131.068 98.39 133.827 96.7953 135.574 95.2259C137.32 93.6565 137.7 92.3909 137.7 91.6062V74.8493C135.498 76.2668 132.941 77.5071 130.132 78.5703C128.689 79.1271 127.145 79.6334 125.55 80.1143V71.6093C126.132 71.4068 126.714 71.2043 127.271 71.0018C131.043 69.559 133.802 67.9643 135.548 66.395C137.295 64.8256 137.7 63.56 137.7 62.7753V48.1193C135.473 49.4862 132.891 50.6759 130.081 51.6884C126.942 52.8275 123.398 53.7893 119.576 54.574C118.463 53.2071 117.298 52.0175 116.184 51.005C114.818 49.7646 113.349 48.6509 111.831 47.6384C117.779 46.8537 123.044 45.6134 127.322 44.0693C131.093 42.7025 133.853 41.1584 135.624 39.665C137.396 38.1462 137.725 37.0325 137.725 36.425C137.725 35.8175 137.396 34.7037 135.624 33.185C133.853 31.7168 131.093 30.1728 127.322 28.8059C119.804 26.0721 109.148 24.3003 97.2 24.3003C85.2525 24.3003 74.596 26.0721 67.0781 28.8059C63.3066 30.1728 60.5475 31.7168 58.7756 33.2103C57.0038 34.729 56.6747 35.8428 56.6747 36.4503H56.7ZM24.3 68.8503C24.3 69.4578 24.6291 70.5715 26.401 72.0903C28.1475 73.5837 30.9066 75.1278 34.7035 76.4946C42.2213 79.2284 52.8525 81.0003 64.8253 81.0003C76.7981 81.0003 87.4294 79.2284 94.9472 76.4946C98.7188 75.1278 101.478 73.5837 103.25 72.0903C105.022 70.5715 105.351 69.4578 105.351 68.8503C105.351 68.2428 105.022 67.129 103.25 65.6103C101.503 64.1168 98.7441 62.5728 94.9472 61.2059C87.4294 58.4721 76.7981 56.7003 64.8253 56.7003C52.8525 56.7003 42.2213 58.4721 34.7035 61.2059C30.9319 62.5728 28.1728 64.1168 26.401 65.6103C24.6291 67.129 24.3 68.2428 24.3 68.8503ZM16.2 68.8503C16.2 64.9775 18.3769 61.8387 21.1106 59.4846C23.8697 57.1053 27.6159 55.1562 31.9191 53.6121C40.5253 50.4734 52.1691 48.6256 64.8 48.6256C77.431 48.6256 89.0747 50.4734 97.681 53.6121C101.959 55.1815 105.73 57.1306 108.489 59.4846C111.248 61.8387 113.4 65.0028 113.4 68.8503V124.006C113.4 127.904 111.324 131.144 108.565 133.625C105.806 136.106 102.06 138.156 97.7569 139.801C89.1253 143.092 77.4563 145.041 64.8 145.041C52.1438 145.041 40.4747 143.092 31.8685 139.801C27.5653 138.156 23.8191 136.106 21.06 133.625C18.3009 131.144 16.2 127.904 16.2 124.006V68.8503ZM105.3 80.5193C103.073 81.8862 100.491 83.0759 97.681 84.0884C89.0747 87.2271 77.431 89.075 64.8 89.075C52.1691 89.075 40.5253 87.2271 31.9191 84.0884C29.1094 83.0759 26.5275 81.8862 24.3 80.5193V95.1753C24.3 95.96 24.705 97.2003 26.4516 98.7696C28.1981 100.339 30.9572 101.959 34.7288 103.377C42.2466 106.237 52.8525 108.085 64.8 108.085C76.7475 108.085 87.3534 106.237 94.8713 103.377C98.6428 101.934 101.402 100.339 103.148 98.7696C104.895 97.2003 105.3 95.96 105.3 95.1753V80.5193ZM24.3 124.006C24.3 124.791 24.705 126.031 26.4516 127.601C28.1981 129.17 30.9572 130.79 34.7288 132.207C42.2466 135.068 52.8525 136.941 64.8 136.941C76.7475 136.941 87.3534 135.093 94.8713 132.233C98.6428 130.79 101.402 129.195 103.148 127.626C104.895 126.057 105.3 124.791 105.3 124.006V107.249C103.098 108.667 100.541 109.907 97.7316 110.97C89.1 114.261 77.4563 116.21 64.8 116.21C52.1438 116.21 40.4747 114.261 31.8685 110.97C29.0841 109.907 26.5275 108.667 24.3 107.249V124.006Z" fill="#990000"/>
</svg>
