<svg width="202" height="202" viewBox="0 0 202 202" fill="none" xmlns="http://www.w3.org/2000/svg">
<path d="M151.5 45.45C154.278 45.45 156.55 47.7225 156.55 50.5V151.5C156.55 154.278 154.278 156.55 151.5 156.55H50.5C47.7225 156.55 45.45 154.278 45.45 151.5V50.5C45.45 47.7225 47.7225 45.45 50.5 45.45H151.5ZM50.5 30.3C39.3585 30.3 30.3 39.3585 30.3 50.5V151.5C30.3 162.642 39.3585 171.7 50.5 171.7H151.5C162.642 171.7 171.7 162.642 171.7 151.5V50.5C171.7 39.3585 162.642 30.3 151.5 30.3H50.5ZM65.65 136.35C65.65 139.128 67.9225 141.4 70.7 141.4H131.3C134.078 141.4 136.35 139.128 136.35 136.35C136.35 122.399 125.051 111.1 111.1 111.1H90.9C76.9494 111.1 65.65 122.399 65.65 136.35ZM101 98.475C110.753 98.475 118.675 90.5529 118.675 80.8C118.675 71.0472 110.753 63.125 101 63.125C91.2472 63.125 83.325 71.0472 83.325 80.8C83.325 90.5529 91.2472 98.475 101 98.475Z" fill="black"/>
</svg>
