<svg width="202" height="202" viewBox="0 0 202 202" fill="none" xmlns="http://www.w3.org/2000/svg">
<path d="M94.2176 36.4737C96.7269 30.5088 105.273 30.5088 107.783 36.4737L122.593 71.6799C123.651 74.1946 126.043 75.9128 128.789 76.1304L167.231 79.1775C173.744 79.6938 176.385 87.7302 171.423 91.933L142.134 116.738C140.042 118.51 139.128 121.291 139.767 123.94L148.716 161.029C150.231 167.313 143.318 172.28 137.741 168.913L104.829 149.037C102.478 147.617 99.5219 147.617 97.1712 149.037L64.2591 168.913C58.6828 172.28 51.7685 167.313 53.2846 161.029L62.2329 123.94C62.872 121.291 61.9584 118.51 59.8664 116.738L30.5774 91.933C25.615 87.7302 28.256 79.6938 34.7692 79.1775L73.2116 76.1304C75.9575 75.9128 78.3494 74.1946 79.4072 71.6799L94.2176 36.4737Z" fill="black"/>
</svg>
