<svg width="56" height="56" viewBox="0 0 56 56" fill="none" xmlns="http://www.w3.org/2000/svg">
<path opacity="0.4" d="M43.4 14.0001V42.0001C43.4 42.7701 42.77 43.4001 42 43.4001H14C13.23 43.4001 12.6 42.7701 12.6 42.0001V14.0001C12.6 13.2301 13.23 12.6001 14 12.6001H42C42.77 12.6001 43.4 13.2301 43.4 14.0001ZM37.1 28.0001C37.1 26.8363 36.1637 25.9001 35 25.9001H26.0662L28.7787 23.1876C29.6012 22.3651 29.6012 21.0351 28.7787 20.2213C27.9562 19.4076 26.6262 19.3988 25.8125 20.2213L19.5125 26.5213C18.69 27.3438 18.69 28.6738 19.5125 29.4876L25.8125 35.7876C26.635 36.6101 27.965 36.6101 28.7787 35.7876C29.5925 34.9651 29.6012 33.6351 28.7787 32.8213L26.0662 30.1088H35C36.1637 30.1088 37.1 29.1726 37.1 28.0088V28.0001Z" fill="#990000"/>
<path d="M42 12.5999C42.77 12.5999 43.4 13.2299 43.4 13.9999V41.9999C43.4 42.7699 42.77 43.3999 42 43.3999H14C13.23 43.3999 12.6 42.7699 12.6 41.9999V13.9999C12.6 13.2299 13.23 12.5999 14 12.5999H42ZM47.6 13.9999C47.6 10.9112 45.0888 8.3999 42 8.3999H14C10.9113 8.3999 8.40001 10.9112 8.40001 13.9999V41.9999C8.40001 45.0886 10.9113 47.5999 14 47.5999H42C45.0888 47.5999 47.6 45.0886 47.6 41.9999V13.9999ZM25.8125 35.7874C26.635 36.6099 27.965 36.6099 28.7788 35.7874C29.5925 34.9649 29.6013 33.6349 28.7788 32.8211L26.0663 30.1087H35C36.1638 30.1087 37.1 29.1724 37.1 28.0087C37.1 26.8449 36.1638 25.9087 35 25.9087H26.0663L28.7788 23.1962C29.6013 22.3737 29.6013 21.0437 28.7788 20.2299C27.9563 19.4162 26.6263 19.4074 25.8125 20.2299L19.5125 26.5299C18.69 27.3524 18.69 28.6824 19.5125 29.4962L25.8125 35.7962V35.7874Z" fill="#990000"/>
</svg>
