<svg width="56" height="56" viewBox="0 0 56 56" fill="none" xmlns="http://www.w3.org/2000/svg">
<path opacity="0.4" d="M12.6 14.0001V42.0001C12.6 42.7701 13.23 43.4001 14 43.4001H42C42.77 43.4001 43.4 42.7701 43.4 42.0001V14.0001C43.4 13.2301 42.77 12.6001 42 12.6001H14C13.23 12.6001 12.6 13.2301 12.6 14.0001ZM18.9 28.0001C18.9 26.8363 19.8362 25.9001 21 25.9001H29.9337L27.2212 23.1876C26.3987 22.3651 26.3987 21.0351 27.2212 20.2213C28.0437 19.4076 29.3737 19.3988 30.1875 20.2213L36.4875 26.5213C37.31 27.3438 37.31 28.6738 36.4875 29.4876L30.1875 35.7876C29.365 36.6101 28.035 36.6101 27.2212 35.7876C26.4075 34.9651 26.3987 33.6351 27.2212 32.8213L29.9337 30.1088H21C19.8362 30.1088 18.9 29.1726 18.9 28.0088V28.0001Z" fill="#990000"/>
<path d="M14 12.5999C13.23 12.5999 12.6 13.2299 12.6 13.9999V41.9999C12.6 42.7699 13.23 43.3999 14 43.3999H42C42.77 43.3999 43.4 42.7699 43.4 41.9999V13.9999C43.4 13.2299 42.77 12.5999 42 12.5999H14ZM8.40002 13.9999C8.40002 10.9112 10.9113 8.3999 14 8.3999H42C45.0888 8.3999 47.6 10.9112 47.6 13.9999V41.9999C47.6 45.0886 45.0888 47.5999 42 47.5999H14C10.9113 47.5999 8.40002 45.0886 8.40002 41.9999V13.9999ZM30.1875 35.7874C29.365 36.6099 28.035 36.6099 27.2213 35.7874C26.4075 34.9649 26.3988 33.6349 27.2213 32.8211L29.9338 30.1087H21C19.8363 30.1087 18.9 29.1724 18.9 28.0087C18.9 26.8449 19.8363 25.9087 21 25.9087H29.9338L27.2213 23.1962C26.3988 22.3737 26.3988 21.0437 27.2213 20.2299C28.0438 19.4162 29.3738 19.4074 30.1875 20.2299L36.4875 26.5299C37.31 27.3524 37.31 28.6824 36.4875 29.4962L30.1875 35.7962V35.7874Z" fill="#990000"/>
</svg>
